<?xml version="1.0" encoding="UTF-8"?>
<svg width="58px" height="60px" viewBox="0 0 58 60" version="1.1" xmlns="http://www.w3.org/2000/svg" xmlns:xlink="http://www.w3.org/1999/xlink">
    <title>logoIso</title>
    <defs>
        <linearGradient x1="3.27777778%" y1="0%" x2="96.7222222%" y2="100%" id="linearGradient-1">
            <stop stop-color="#F2385D" offset="0%"></stop>
            <stop stop-color="#760630" offset="100%"></stop>
        </linearGradient>
    </defs>
    <g id="Page-1" stroke="none" stroke-width="1" fill="none" fill-rule="evenodd">
        <g id="logoIso" fill="url(#linearGradient-1)" fill-rule="nonzero">
            <path d="M58,31.8171105 L57.9912979,31.9717016 C57.0164386,47.4983749 44.6224925,59.7497178 29.4661571,59.9957568 L29.4661571,59.9957568 L28.99787,59.999546 L3.55271368e-15,60 L0.00871821734,59.8518799 C0.970030546,44.5016433 13.1025666,32.3248572 28.0602744,31.8340659 L28.0602744,31.8340659 L28.5219188,31.8226397 L29.0025526,31.8186573 L58,31.8171105 Z M7.10542736e-15,-2.80664381e-13 L29.0001699,0.00155675474 L29.4644783,0.00531929168 C44.6041467,0.25083724 57.0127245,12.4824688 57.9909684,28.0241016 L57.9909684,28.0241016 L57.9990218,28.1828895 L29.0001805,28.1824261 L28.5172581,28.1783764 L28.0636581,28.1671782 C13.1227713,27.6794588 0.97374021,15.520467 0.00904226272,0.154425832 L0.00904226272,0.154425832 L7.10542736e-15,-2.80664381e-13 Z" id="Combined-Shape-Copy-27"></path>
        </g>
    </g>
</svg>