<?xml version="1.0" encoding="UTF-8"?>
<svg width="226px" height="60px" viewBox="0 0 226 60" version="1.1" xmlns="http://www.w3.org/2000/svg" xmlns:xlink="http://www.w3.org/1999/xlink">
    <title>Group 2</title>
    <defs>
        <linearGradient x1="3.27777778%" y1="0%" x2="96.7222222%" y2="100%" id="linearGradient-1">
            <stop stop-color="#F2385D" offset="0%"></stop>
            <stop stop-color="#760630" offset="100%"></stop>
        </linearGradient>
    </defs>
    <g id="Page-3" stroke="none" stroke-width="1" fill="none" fill-rule="evenodd">
        <g id="iPhone-11-Pro-Copy-3" transform="translate(-64.000000, -282.000000)">
            <g id="Group-2" transform="translate(64.000000, 282.000000)">
                <path d="M80.8291016,27.2 C87.171875,27.2 90.9072266,23.2595703 90.9072266,16.5505859 C90.9072266,9.84160156 87.171875,6.06230469 80.8291016,6.06230469 L72.7578125,6.06230469 L72.7578125,27.2 L80.8291016,27.2 Z M80.3017578,23.5378906 L77.1816406,23.5378906 L77.1816406,9.70976562 L80.3017578,9.70976562 C84.1982422,9.70976562 86.3955078,12.1414062 86.3955078,16.5652344 C86.3955078,21.1355469 84.2568359,23.5378906 80.3017578,23.5378906 Z M95.5947266,9.37285156 C96.8398438,9.37285156 97.8212891,8.37675781 97.8212891,7.17558594 C97.8212891,5.95976562 96.8398438,4.97832031 95.5947266,4.97832031 C94.3496094,4.97832031 93.3681641,5.95976562 93.3681641,7.17558594 C93.3681641,8.37675781 94.3496094,9.37285156 95.5947266,9.37285156 Z M97.7480469,27.2 L97.7480469,11.496875 L93.4707031,11.496875 L93.4707031,27.2 L97.7480469,27.2 Z M106.419922,27.4490234 C108.734375,27.4490234 110.550781,26.2332031 111.3125,24.5046875 L111.385742,24.5046875 L111.385742,27.2 L115.604492,27.2 L115.604492,6.06230469 L111.327148,6.06230469 L111.327148,14.1921875 L111.239258,14.1921875 C110.477539,12.4490234 108.719727,11.2478516 106.449219,11.2478516 C102.508789,11.2478516 100.018555,14.3386719 100.018555,19.3191406 C100.018555,24.3435547 102.494141,27.4490234 106.419922,27.4490234 Z M107.870117,24.0066406 C105.716797,24.0066406 104.398438,22.2341797 104.398438,19.3484375 C104.398438,16.4773437 105.716797,14.6755859 107.870117,14.6755859 C109.994141,14.6755859 111.356445,16.4919922 111.356445,19.3484375 C111.356445,22.2195312 109.994141,24.0066406 107.870117,24.0066406 Z M125.667969,27.5369141 C130.414062,27.5369141 133.446289,24.5046875 133.446289,19.3337891 C133.446289,14.2361328 130.370117,11.1599609 125.667969,11.1599609 C120.96582,11.1599609 117.889648,14.2507812 117.889648,19.3337891 C117.889648,24.4900391 120.921875,27.5369141 125.667969,27.5369141 Z M125.667969,24.2703125 C123.558594,24.2703125 122.225586,22.4978516 122.225586,19.3484375 C122.225586,16.2283203 123.587891,14.4265625 125.667969,14.4265625 C127.748047,14.4265625 129.095703,16.2283203 129.095703,19.3484375 C129.095703,22.4978516 127.762695,24.2703125 125.667969,24.2703125 Z M139.920898,27.2 L139.920898,18.4255859 C139.920898,16.2136719 141.151367,14.9246094 143.260742,14.9246094 C143.875977,14.9246094 144.461914,15.0271484 144.813477,15.1736328 L144.813477,11.4089844 C144.520508,11.3210937 144.095703,11.2478516 143.597656,11.2478516 C141.751953,11.2478516 140.418945,12.3318359 139.862305,14.3240234 L139.774414,14.3240234 L139.774414,11.496875 L135.643555,11.496875 L135.643555,27.2 L139.920898,27.2 Z" id="Didor" fill="#FFFFFF" fill-rule="nonzero"></path>
                <path d="M77.1816406,54 L77.1816406,45.6796875 L85.7802734,45.6796875 L85.7802734,42.1787109 L77.1816406,42.1787109 L77.1816406,36.5097656 L86.6005859,36.5097656 L86.6005859,32.8623047 L72.7578125,32.8623047 L72.7578125,54 L77.1816406,54 Z M93.1191406,54 L93.1191406,45.2255859 C93.1191406,43.0136719 94.3496094,41.7246094 96.4589844,41.7246094 C97.0742188,41.7246094 97.6601562,41.8271484 98.0117188,41.9736328 L98.0117188,38.2089844 C97.71875,38.1210938 97.2939453,38.0478516 96.7958984,38.0478516 C94.9501953,38.0478516 93.6171875,39.1318359 93.0605469,41.1240234 L92.9726562,41.1240234 L92.9726562,38.296875 L88.8417969,38.296875 L88.8417969,54 L93.1191406,54 Z M104.413086,54.2490234 C106.375977,54.2490234 108.324219,53.2675781 109.203125,51.5976562 L109.291016,51.5976562 L109.291016,54 L113.421875,54 L113.421875,43.2041016 C113.421875,40.0400391 110.799805,37.9599609 106.771484,37.9599609 C102.611328,37.9599609 100.018555,40.0546875 99.8574219,43.1015625 L103.768555,43.1015625 C103.973633,41.9443359 104.984375,41.1533203 106.581055,41.1533203 C108.192383,41.1533203 109.217773,42.0029297 109.217773,43.4677734 L109.217773,44.5078125 L105.262695,44.7421875 C101.351562,44.9765625 99.1542969,46.6318359 99.1542969,49.4882812 C99.1542969,52.3154297 101.424805,54.2490234 104.413086,54.2490234 Z M105.819336,51.1582031 C104.369141,51.1582031 103.402344,50.4257812 103.402344,49.2539062 C103.402344,48.140625 104.310547,47.4228516 105.907227,47.3056641 L109.217773,47.1005859 L109.217773,48.2431641 C109.217773,49.9423828 107.679688,51.1582031 105.819336,51.1582031 Z M120.453125,54 L120.453125,44.5224609 C120.453125,42.7646484 121.551758,41.5341797 123.177734,41.5341797 C124.759766,41.5341797 125.711914,42.5302734 125.711914,44.2148438 L125.711914,54 L129.828125,54 L129.828125,44.4638672 C129.828125,42.7207031 130.897461,41.5341797 132.523438,41.5341797 C134.178711,41.5341797 135.086914,42.5302734 135.086914,44.3466797 L135.086914,54 L139.364258,54 L139.364258,43.2773438 C139.364258,40.1132812 137.298828,38.0039062 134.222656,38.0039062 C131.922852,38.0039062 130.047852,39.2490234 129.344727,41.2265625 L129.256836,41.2265625 C128.729492,39.1757812 127.147461,38.0039062 124.876953,38.0039062 C122.738281,38.0039062 121.053711,39.2490234 120.394531,41.1386719 L120.306641,41.1386719 L120.306641,38.296875 L116.175781,38.296875 L116.175781,54 L120.453125,54 Z M149.237305,54.3369141 C153.119141,54.3369141 155.931641,52.2714844 156.400391,49.1953125 L152.474609,49.1953125 C152.079102,50.3964844 150.87793,51.1728516 149.310547,51.1728516 C147.12793,51.1728516 145.707031,49.6347656 145.707031,47.3935547 L145.707031,47.1298828 L156.532227,47.1298828 L156.532227,45.8261719 C156.532227,41.0507812 153.646484,37.9599609 149.076172,37.9599609 C144.432617,37.9599609 141.50293,41.2119141 141.50293,46.2216797 C141.50293,51.2460938 144.40332,54.3369141 149.237305,54.3369141 Z M152.416016,44.5078125 L145.750977,44.5078125 C145.897461,42.5449219 147.245117,41.1240234 149.120117,41.1240234 C151.024414,41.1240234 152.328125,42.5009766 152.416016,44.5078125 Z M166.288086,54 L169.115234,42.8964844 L169.203125,42.8964844 L172.044922,54 L176.600586,54 L180.760742,38.296875 L176.541992,38.296875 L174.154297,49.9423828 L174.066406,49.9423828 L171.268555,38.296875 L167.166992,38.296875 L164.383789,49.9423828 L164.295898,49.9423828 L161.922852,38.296875 L157.616211,38.296875 L161.791016,54 L166.288086,54 Z M189.637695,54.3369141 C194.383789,54.3369141 197.416016,51.3046875 197.416016,46.1337891 C197.416016,41.0361328 194.339844,37.9599609 189.637695,37.9599609 C184.935547,37.9599609 181.859375,41.0507812 181.859375,46.1337891 C181.859375,51.2900391 184.891602,54.3369141 189.637695,54.3369141 Z M189.637695,51.0703125 C187.52832,51.0703125 186.195312,49.2978516 186.195312,46.1484375 C186.195312,43.0283203 187.557617,41.2265625 189.637695,41.2265625 C191.717773,41.2265625 193.06543,43.0283203 193.06543,46.1484375 C193.06543,49.2978516 191.732422,51.0703125 189.637695,51.0703125 Z M203.890625,54 L203.890625,45.2255859 C203.890625,43.0136719 205.121094,41.7246094 207.230469,41.7246094 C207.845703,41.7246094 208.431641,41.8271484 208.783203,41.9736328 L208.783203,38.2089844 C208.490234,38.1210938 208.06543,38.0478516 207.567383,38.0478516 C205.72168,38.0478516 204.388672,39.1318359 203.832031,41.1240234 L203.744141,41.1240234 L203.744141,38.296875 L199.613281,38.296875 L199.613281,54 L203.890625,54 Z M214.90625,54 L214.90625,48.8144531 L216.019531,47.6132812 L220.516602,54 L225.438477,54 L219.154297,45.0351562 L225.145508,38.296875 L220.296875,38.296875 L214.964844,44.5957031 L214.90625,44.5957031 L214.90625,32.8623047 L210.628906,32.8623047 L210.628906,54 L214.90625,54 Z" id="Framework" fill="#FFFFFF" fill-rule="nonzero"></path>
                <path d="M58,31.8171105 L57.9912979,31.9717016 C57.0164386,47.4983749 44.6224925,59.7497178 29.4661571,59.9957568 L29.4661571,59.9957568 L28.99787,59.999546 L3.55271368e-15,60 L0.00871821734,59.8518799 C0.970030546,44.5016433 13.1025666,32.3248572 28.0602744,31.8340659 L28.0602744,31.8340659 L28.5219188,31.8226397 L29.0025526,31.8186573 L58,31.8171105 Z M7.10542736e-15,-2.80664381e-13 L29.0001699,0.00155675474 L29.4644783,0.00531929168 C44.6041467,0.25083724 57.0127245,12.4824688 57.9909684,28.0241016 L57.9909684,28.0241016 L57.9990218,28.1828895 L29.0001805,28.1824261 L28.5172581,28.1783764 L28.0636581,28.1671782 C13.1227713,27.6794588 0.97374021,15.520467 0.00904226272,0.154425832 L0.00904226272,0.154425832 L7.10542736e-15,-2.80664381e-13 Z" id="Combined-Shape-Copy-27" fill="url(#linearGradient-1)"></path>
            </g>
        </g>
    </g>
</svg>
